<mxfile host="app.diagrams.net" agent="Mozilla/5.0 (Windows NT 10.0; Win64; x64) AppleWebKit/537.36 (KHTML, like Gecko) Chrome/135.0.0.0 Safari/537.36" version="26.1.1">
  <diagram name="Seite-1" id="ROjn_5DmjThVChQr5SRJ">
    <mxGraphModel dx="2100" dy="1236" grid="1" gridSize="10" guides="1" tooltips="1" connect="1" arrows="1" fold="1" page="1" pageScale="1" pageWidth="827" pageHeight="1169" math="0" shadow="0">
      <root>
        <mxCell id="0" />
        <mxCell id="1" parent="0" />
        <mxCell id="bhsF4yGB952L7Mf8yBAD-1" value="Planung und Realisierung eines Cyberphysischen Systems&amp;nbsp;" style="rounded=0;whiteSpace=wrap;html=1;" vertex="1" parent="1">
          <mxGeometry x="580" y="30" width="120" height="60" as="geometry" />
        </mxCell>
        <mxCell id="bhsF4yGB952L7Mf8yBAD-2" value="Projektinitiierung&amp;nbsp;" style="rounded=0;whiteSpace=wrap;html=1;" vertex="1" parent="1">
          <mxGeometry x="40" y="160" width="120" height="60" as="geometry" />
        </mxCell>
        <mxCell id="bhsF4yGB952L7Mf8yBAD-3" value="Planung&amp;nbsp;" style="rounded=0;whiteSpace=wrap;html=1;" vertex="1" parent="1">
          <mxGeometry x="220" y="160" width="120" height="60" as="geometry" />
        </mxCell>
        <mxCell id="bhsF4yGB952L7Mf8yBAD-4" value="Durchführung&amp;nbsp;" style="rounded=0;whiteSpace=wrap;html=1;" vertex="1" parent="1">
          <mxGeometry x="580" y="160" width="120" height="60" as="geometry" />
        </mxCell>
        <mxCell id="bhsF4yGB952L7Mf8yBAD-5" value="Testphase" style="rounded=0;whiteSpace=wrap;html=1;" vertex="1" parent="1">
          <mxGeometry x="940" y="160" width="120" height="60" as="geometry" />
        </mxCell>
        <mxCell id="bhsF4yGB952L7Mf8yBAD-6" value="Abschluss" style="rounded=0;whiteSpace=wrap;html=1;" vertex="1" parent="1">
          <mxGeometry x="1121" y="160" width="120" height="60" as="geometry" />
        </mxCell>
        <mxCell id="bhsF4yGB952L7Mf8yBAD-9" value="" style="endArrow=none;html=1;rounded=0;" edge="1" parent="1">
          <mxGeometry width="50" height="50" relative="1" as="geometry">
            <mxPoint x="639.67" y="130" as="sourcePoint" />
            <mxPoint x="639.67" y="90" as="targetPoint" />
          </mxGeometry>
        </mxCell>
        <mxCell id="bhsF4yGB952L7Mf8yBAD-10" value="" style="endArrow=none;html=1;rounded=0;" edge="1" parent="1">
          <mxGeometry width="50" height="50" relative="1" as="geometry">
            <mxPoint x="100" y="130" as="sourcePoint" />
            <mxPoint x="470" y="130" as="targetPoint" />
          </mxGeometry>
        </mxCell>
        <mxCell id="bhsF4yGB952L7Mf8yBAD-11" value="" style="endArrow=none;html=1;rounded=0;" edge="1" parent="1">
          <mxGeometry width="50" height="50" relative="1" as="geometry">
            <mxPoint x="870" y="130" as="sourcePoint" />
            <mxPoint x="470" y="130" as="targetPoint" />
          </mxGeometry>
        </mxCell>
        <mxCell id="bhsF4yGB952L7Mf8yBAD-12" value="" style="endArrow=none;html=1;rounded=0;" edge="1" parent="1">
          <mxGeometry width="50" height="50" relative="1" as="geometry">
            <mxPoint x="100" y="260" as="sourcePoint" />
            <mxPoint x="100" y="220" as="targetPoint" />
          </mxGeometry>
        </mxCell>
        <mxCell id="bhsF4yGB952L7Mf8yBAD-13" value="Projektteam zusammenstellen" style="rounded=0;whiteSpace=wrap;html=1;" vertex="1" parent="1">
          <mxGeometry x="40" y="260" width="120" height="60" as="geometry" />
        </mxCell>
        <mxCell id="bhsF4yGB952L7Mf8yBAD-14" value="" style="endArrow=none;html=1;rounded=0;" edge="1" parent="1">
          <mxGeometry width="50" height="50" relative="1" as="geometry">
            <mxPoint x="100" y="360" as="sourcePoint" />
            <mxPoint x="100" y="320" as="targetPoint" />
          </mxGeometry>
        </mxCell>
        <mxCell id="bhsF4yGB952L7Mf8yBAD-15" value="Projektleiter festlegen" style="rounded=0;whiteSpace=wrap;html=1;" vertex="1" parent="1">
          <mxGeometry x="40" y="360" width="120" height="60" as="geometry" />
        </mxCell>
        <mxCell id="bhsF4yGB952L7Mf8yBAD-16" value="" style="endArrow=none;html=1;rounded=0;" edge="1" parent="1">
          <mxGeometry width="50" height="50" relative="1" as="geometry">
            <mxPoint x="100" y="460" as="sourcePoint" />
            <mxPoint x="100" y="420" as="targetPoint" />
          </mxGeometry>
        </mxCell>
        <mxCell id="bhsF4yGB952L7Mf8yBAD-17" value="Zieldefinition" style="rounded=0;whiteSpace=wrap;html=1;" vertex="1" parent="1">
          <mxGeometry x="40" y="460" width="120" height="60" as="geometry" />
        </mxCell>
        <mxCell id="bhsF4yGB952L7Mf8yBAD-18" value="" style="endArrow=none;html=1;rounded=0;" edge="1" parent="1">
          <mxGeometry width="50" height="50" relative="1" as="geometry">
            <mxPoint x="100" y="560" as="sourcePoint" />
            <mxPoint x="100" y="520" as="targetPoint" />
          </mxGeometry>
        </mxCell>
        <mxCell id="bhsF4yGB952L7Mf8yBAD-19" value="Projektantrag abgeben&amp;nbsp;" style="rounded=0;whiteSpace=wrap;html=1;" vertex="1" parent="1">
          <mxGeometry x="40" y="560" width="120" height="60" as="geometry" />
        </mxCell>
        <mxCell id="bhsF4yGB952L7Mf8yBAD-20" value="" style="endArrow=none;html=1;rounded=0;" edge="1" parent="1">
          <mxGeometry width="50" height="50" relative="1" as="geometry">
            <mxPoint x="100" y="660" as="sourcePoint" />
            <mxPoint x="100" y="620" as="targetPoint" />
          </mxGeometry>
        </mxCell>
        <mxCell id="bhsF4yGB952L7Mf8yBAD-21" value="Firmengründung" style="rounded=0;whiteSpace=wrap;html=1;" vertex="1" parent="1">
          <mxGeometry x="40" y="660" width="120" height="60" as="geometry" />
        </mxCell>
        <mxCell id="bhsF4yGB952L7Mf8yBAD-23" value="GANTT-Diagramm erstellen" style="rounded=0;whiteSpace=wrap;html=1;" vertex="1" parent="1">
          <mxGeometry x="220" y="260" width="120" height="60" as="geometry" />
        </mxCell>
        <mxCell id="bhsF4yGB952L7Mf8yBAD-24" value="" style="endArrow=none;html=1;rounded=0;" edge="1" parent="1">
          <mxGeometry width="50" height="50" relative="1" as="geometry">
            <mxPoint x="280" y="260" as="sourcePoint" />
            <mxPoint x="280" y="220" as="targetPoint" />
          </mxGeometry>
        </mxCell>
        <mxCell id="bhsF4yGB952L7Mf8yBAD-25" value="" style="endArrow=none;html=1;rounded=0;" edge="1" parent="1">
          <mxGeometry width="50" height="50" relative="1" as="geometry">
            <mxPoint x="280" y="360" as="sourcePoint" />
            <mxPoint x="280" y="320" as="targetPoint" />
          </mxGeometry>
        </mxCell>
        <mxCell id="bhsF4yGB952L7Mf8yBAD-26" value="Materialplanung&amp;nbsp;" style="rounded=0;whiteSpace=wrap;html=1;" vertex="1" parent="1">
          <mxGeometry x="220" y="360" width="120" height="60" as="geometry" />
        </mxCell>
        <mxCell id="bhsF4yGB952L7Mf8yBAD-27" value="" style="endArrow=none;html=1;rounded=0;" edge="1" parent="1">
          <mxGeometry width="50" height="50" relative="1" as="geometry">
            <mxPoint x="280" y="460" as="sourcePoint" />
            <mxPoint x="280" y="420" as="targetPoint" />
          </mxGeometry>
        </mxCell>
        <mxCell id="bhsF4yGB952L7Mf8yBAD-28" value="Netzwerkplanung&amp;nbsp;" style="rounded=0;whiteSpace=wrap;html=1;" vertex="1" parent="1">
          <mxGeometry x="220" y="460" width="120" height="60" as="geometry" />
        </mxCell>
        <mxCell id="bhsF4yGB952L7Mf8yBAD-29" value="" style="endArrow=none;html=1;rounded=0;" edge="1" parent="1">
          <mxGeometry width="50" height="50" relative="1" as="geometry">
            <mxPoint x="280" y="560" as="sourcePoint" />
            <mxPoint x="280" y="520" as="targetPoint" />
          </mxGeometry>
        </mxCell>
        <mxCell id="bhsF4yGB952L7Mf8yBAD-30" value="Risikomanagement&amp;nbsp;" style="rounded=0;whiteSpace=wrap;html=1;" vertex="1" parent="1">
          <mxGeometry x="220" y="560" width="120" height="60" as="geometry" />
        </mxCell>
        <mxCell id="bhsF4yGB952L7Mf8yBAD-31" value="" style="endArrow=none;html=1;rounded=0;" edge="1" parent="1">
          <mxGeometry width="50" height="50" relative="1" as="geometry">
            <mxPoint x="280" y="660" as="sourcePoint" />
            <mxPoint x="280" y="620" as="targetPoint" />
          </mxGeometry>
        </mxCell>
        <mxCell id="bhsF4yGB952L7Mf8yBAD-32" value="Kostenkalkulation" style="rounded=0;whiteSpace=wrap;html=1;" vertex="1" parent="1">
          <mxGeometry x="220" y="660" width="120" height="60" as="geometry" />
        </mxCell>
        <mxCell id="bhsF4yGB952L7Mf8yBAD-33" value="" style="endArrow=none;html=1;rounded=0;" edge="1" parent="1">
          <mxGeometry width="50" height="50" relative="1" as="geometry">
            <mxPoint x="280" y="760" as="sourcePoint" />
            <mxPoint x="280" y="720" as="targetPoint" />
          </mxGeometry>
        </mxCell>
        <mxCell id="bhsF4yGB952L7Mf8yBAD-34" value="Arbeitspaketdefinition" style="rounded=0;whiteSpace=wrap;html=1;" vertex="1" parent="1">
          <mxGeometry x="220" y="760" width="120" height="60" as="geometry" />
        </mxCell>
        <mxCell id="bhsF4yGB952L7Mf8yBAD-35" value="Frontend" style="rounded=0;whiteSpace=wrap;html=1;" vertex="1" parent="1">
          <mxGeometry x="400" y="260" width="120" height="60" as="geometry" />
        </mxCell>
        <mxCell id="bhsF4yGB952L7Mf8yBAD-36" value="Backend&amp;nbsp;" style="rounded=0;whiteSpace=wrap;html=1;" vertex="1" parent="1">
          <mxGeometry x="580" y="260" width="120" height="60" as="geometry" />
        </mxCell>
        <mxCell id="bhsF4yGB952L7Mf8yBAD-37" value="Mikrocontroller" style="rounded=0;whiteSpace=wrap;html=1;" vertex="1" parent="1">
          <mxGeometry x="760" y="260" width="120" height="60" as="geometry" />
        </mxCell>
        <mxCell id="bhsF4yGB952L7Mf8yBAD-38" value="" style="endArrow=none;html=1;rounded=0;" edge="1" parent="1">
          <mxGeometry width="50" height="50" relative="1" as="geometry">
            <mxPoint x="640" y="360" as="sourcePoint" />
            <mxPoint x="640" y="320" as="targetPoint" />
          </mxGeometry>
        </mxCell>
        <mxCell id="bhsF4yGB952L7Mf8yBAD-39" value="MQTT-Verarbeitung&amp;nbsp;" style="rounded=0;whiteSpace=wrap;html=1;" vertex="1" parent="1">
          <mxGeometry x="580" y="360" width="120" height="60" as="geometry" />
        </mxCell>
        <mxCell id="bhsF4yGB952L7Mf8yBAD-40" value="" style="endArrow=none;html=1;rounded=0;" edge="1" parent="1">
          <mxGeometry width="50" height="50" relative="1" as="geometry">
            <mxPoint x="640" y="460" as="sourcePoint" />
            <mxPoint x="640" y="420" as="targetPoint" />
          </mxGeometry>
        </mxCell>
        <mxCell id="bhsF4yGB952L7Mf8yBAD-41" value="Datenbankanbindung" style="rounded=0;whiteSpace=wrap;html=1;" vertex="1" parent="1">
          <mxGeometry x="580" y="460" width="120" height="60" as="geometry" />
        </mxCell>
        <mxCell id="bhsF4yGB952L7Mf8yBAD-42" value="" style="endArrow=none;html=1;rounded=0;" edge="1" parent="1">
          <mxGeometry width="50" height="50" relative="1" as="geometry">
            <mxPoint x="640" y="560" as="sourcePoint" />
            <mxPoint x="640" y="520" as="targetPoint" />
          </mxGeometry>
        </mxCell>
        <mxCell id="bhsF4yGB952L7Mf8yBAD-43" value="Quellcode für das Backend schreiben" style="rounded=0;whiteSpace=wrap;html=1;" vertex="1" parent="1">
          <mxGeometry x="580" y="560" width="120" height="60" as="geometry" />
        </mxCell>
        <mxCell id="bhsF4yGB952L7Mf8yBAD-44" value="" style="endArrow=none;html=1;rounded=0;" edge="1" parent="1">
          <mxGeometry width="50" height="50" relative="1" as="geometry">
            <mxPoint x="460" y="360" as="sourcePoint" />
            <mxPoint x="460" y="320" as="targetPoint" />
          </mxGeometry>
        </mxCell>
        <mxCell id="bhsF4yGB952L7Mf8yBAD-45" value="Visualisierung im Browser&amp;nbsp;" style="rounded=0;whiteSpace=wrap;html=1;" vertex="1" parent="1">
          <mxGeometry x="400" y="360" width="120" height="60" as="geometry" />
        </mxCell>
        <mxCell id="bhsF4yGB952L7Mf8yBAD-46" value="" style="endArrow=none;html=1;rounded=0;" edge="1" parent="1">
          <mxGeometry width="50" height="50" relative="1" as="geometry">
            <mxPoint x="820" y="360" as="sourcePoint" />
            <mxPoint x="820" y="320" as="targetPoint" />
          </mxGeometry>
        </mxCell>
        <mxCell id="bhsF4yGB952L7Mf8yBAD-47" value="Code für ESP32 schreiben" style="rounded=0;whiteSpace=wrap;html=1;" vertex="1" parent="1">
          <mxGeometry x="760" y="360" width="120" height="60" as="geometry" />
        </mxCell>
        <mxCell id="bhsF4yGB952L7Mf8yBAD-48" value="" style="endArrow=none;html=1;rounded=0;" edge="1" parent="1">
          <mxGeometry width="50" height="50" relative="1" as="geometry">
            <mxPoint x="820" y="460" as="sourcePoint" />
            <mxPoint x="820" y="420" as="targetPoint" />
          </mxGeometry>
        </mxCell>
        <mxCell id="bhsF4yGB952L7Mf8yBAD-49" value="Netzwerk-&lt;div&gt;Kommunikation ermöglichen&lt;/div&gt;" style="rounded=0;whiteSpace=wrap;html=1;" vertex="1" parent="1">
          <mxGeometry x="760" y="460" width="120" height="60" as="geometry" />
        </mxCell>
        <mxCell id="bhsF4yGB952L7Mf8yBAD-50" value="" style="endArrow=none;html=1;rounded=0;" edge="1" parent="1">
          <mxGeometry width="50" height="50" relative="1" as="geometry">
            <mxPoint x="640" y="240" as="sourcePoint" />
            <mxPoint x="640" y="220" as="targetPoint" />
          </mxGeometry>
        </mxCell>
        <mxCell id="bhsF4yGB952L7Mf8yBAD-51" value="" style="endArrow=none;html=1;rounded=0;" edge="1" parent="1">
          <mxGeometry width="50" height="50" relative="1" as="geometry">
            <mxPoint x="460" y="240" as="sourcePoint" />
            <mxPoint x="640" y="240" as="targetPoint" />
          </mxGeometry>
        </mxCell>
        <mxCell id="bhsF4yGB952L7Mf8yBAD-52" value="" style="endArrow=none;html=1;rounded=0;" edge="1" parent="1">
          <mxGeometry width="50" height="50" relative="1" as="geometry">
            <mxPoint x="820" y="240" as="sourcePoint" />
            <mxPoint x="640" y="240" as="targetPoint" />
          </mxGeometry>
        </mxCell>
        <mxCell id="bhsF4yGB952L7Mf8yBAD-53" value="" style="endArrow=none;html=1;rounded=0;exitX=0.5;exitY=0;exitDx=0;exitDy=0;" edge="1" parent="1" source="bhsF4yGB952L7Mf8yBAD-35">
          <mxGeometry width="50" height="50" relative="1" as="geometry">
            <mxPoint x="410" y="290" as="sourcePoint" />
            <mxPoint x="460" y="240" as="targetPoint" />
          </mxGeometry>
        </mxCell>
        <mxCell id="bhsF4yGB952L7Mf8yBAD-54" value="" style="endArrow=none;html=1;rounded=0;exitX=0.5;exitY=0;exitDx=0;exitDy=0;" edge="1" parent="1" source="bhsF4yGB952L7Mf8yBAD-36">
          <mxGeometry width="50" height="50" relative="1" as="geometry">
            <mxPoint x="590" y="290" as="sourcePoint" />
            <mxPoint x="640" y="240" as="targetPoint" />
          </mxGeometry>
        </mxCell>
        <mxCell id="bhsF4yGB952L7Mf8yBAD-55" value="" style="endArrow=none;html=1;rounded=0;" edge="1" parent="1" source="bhsF4yGB952L7Mf8yBAD-37">
          <mxGeometry width="50" height="50" relative="1" as="geometry">
            <mxPoint x="770" y="290" as="sourcePoint" />
            <mxPoint x="820" y="240" as="targetPoint" />
          </mxGeometry>
        </mxCell>
        <mxCell id="bhsF4yGB952L7Mf8yBAD-56" value="" style="endArrow=none;html=1;rounded=0;exitX=0.5;exitY=0;exitDx=0;exitDy=0;" edge="1" parent="1" source="bhsF4yGB952L7Mf8yBAD-4">
          <mxGeometry width="50" height="50" relative="1" as="geometry">
            <mxPoint x="590" y="180" as="sourcePoint" />
            <mxPoint x="640" y="130" as="targetPoint" />
          </mxGeometry>
        </mxCell>
        <mxCell id="bhsF4yGB952L7Mf8yBAD-57" value="" style="endArrow=none;html=1;rounded=0;exitX=0.5;exitY=0;exitDx=0;exitDy=0;" edge="1" parent="1" source="bhsF4yGB952L7Mf8yBAD-3">
          <mxGeometry width="50" height="50" relative="1" as="geometry">
            <mxPoint x="230" y="180" as="sourcePoint" />
            <mxPoint x="280" y="130" as="targetPoint" />
          </mxGeometry>
        </mxCell>
        <mxCell id="bhsF4yGB952L7Mf8yBAD-58" value="" style="endArrow=none;html=1;rounded=0;exitX=0.5;exitY=0;exitDx=0;exitDy=0;" edge="1" parent="1" source="bhsF4yGB952L7Mf8yBAD-2">
          <mxGeometry width="50" height="50" relative="1" as="geometry">
            <mxPoint x="50" y="180" as="sourcePoint" />
            <mxPoint x="100" y="130" as="targetPoint" />
          </mxGeometry>
        </mxCell>
        <mxCell id="bhsF4yGB952L7Mf8yBAD-59" value="" style="endArrow=none;html=1;rounded=0;" edge="1" parent="1">
          <mxGeometry width="50" height="50" relative="1" as="geometry">
            <mxPoint x="1180" y="160" as="sourcePoint" />
            <mxPoint x="1180" y="130" as="targetPoint" />
          </mxGeometry>
        </mxCell>
        <mxCell id="bhsF4yGB952L7Mf8yBAD-60" value="" style="endArrow=none;html=1;rounded=0;" edge="1" parent="1">
          <mxGeometry width="50" height="50" relative="1" as="geometry">
            <mxPoint x="1180" y="130" as="sourcePoint" />
            <mxPoint x="870" y="130" as="targetPoint" />
          </mxGeometry>
        </mxCell>
        <mxCell id="bhsF4yGB952L7Mf8yBAD-61" value="" style="endArrow=none;html=1;rounded=0;exitX=0.5;exitY=0;exitDx=0;exitDy=0;" edge="1" parent="1" source="bhsF4yGB952L7Mf8yBAD-5">
          <mxGeometry width="50" height="50" relative="1" as="geometry">
            <mxPoint x="950" y="180" as="sourcePoint" />
            <mxPoint x="1000" y="130" as="targetPoint" />
          </mxGeometry>
        </mxCell>
        <mxCell id="bhsF4yGB952L7Mf8yBAD-62" value="" style="endArrow=none;html=1;rounded=0;" edge="1" parent="1">
          <mxGeometry width="50" height="50" relative="1" as="geometry">
            <mxPoint x="280" y="860" as="sourcePoint" />
            <mxPoint x="280" y="820" as="targetPoint" />
          </mxGeometry>
        </mxCell>
        <mxCell id="bhsF4yGB952L7Mf8yBAD-63" value="Lasten-/Pflichtenheft" style="rounded=0;whiteSpace=wrap;html=1;" vertex="1" parent="1">
          <mxGeometry x="220" y="860" width="120" height="60" as="geometry" />
        </mxCell>
        <mxCell id="bhsF4yGB952L7Mf8yBAD-64" value="" style="endArrow=none;html=1;rounded=0;" edge="1" parent="1">
          <mxGeometry width="50" height="50" relative="1" as="geometry">
            <mxPoint x="280" y="960" as="sourcePoint" />
            <mxPoint x="280" y="920" as="targetPoint" />
          </mxGeometry>
        </mxCell>
        <mxCell id="bhsF4yGB952L7Mf8yBAD-65" value="Phasenplan" style="rounded=0;whiteSpace=wrap;html=1;" vertex="1" parent="1">
          <mxGeometry x="220" y="960" width="120" height="60" as="geometry" />
        </mxCell>
        <mxCell id="bhsF4yGB952L7Mf8yBAD-66" value="" style="endArrow=none;html=1;rounded=0;" edge="1" parent="1">
          <mxGeometry width="50" height="50" relative="1" as="geometry">
            <mxPoint x="1000" y="260" as="sourcePoint" />
            <mxPoint x="1000" y="220" as="targetPoint" />
          </mxGeometry>
        </mxCell>
        <mxCell id="bhsF4yGB952L7Mf8yBAD-67" value="Testprotokolle erstellen" style="rounded=0;whiteSpace=wrap;html=1;" vertex="1" parent="1">
          <mxGeometry x="940" y="260" width="120" height="60" as="geometry" />
        </mxCell>
        <mxCell id="bhsF4yGB952L7Mf8yBAD-68" value="" style="endArrow=none;html=1;rounded=0;" edge="1" parent="1">
          <mxGeometry width="50" height="50" relative="1" as="geometry">
            <mxPoint x="1000" y="360" as="sourcePoint" />
            <mxPoint x="1000" y="320" as="targetPoint" />
          </mxGeometry>
        </mxCell>
        <mxCell id="bhsF4yGB952L7Mf8yBAD-69" value="Testen der verschiedenen Systemkomponenten" style="rounded=0;whiteSpace=wrap;html=1;" vertex="1" parent="1">
          <mxGeometry x="940" y="360" width="120" height="60" as="geometry" />
        </mxCell>
        <mxCell id="bhsF4yGB952L7Mf8yBAD-70" value="" style="endArrow=none;html=1;rounded=0;" edge="1" parent="1">
          <mxGeometry width="50" height="50" relative="1" as="geometry">
            <mxPoint x="1180" y="260" as="sourcePoint" />
            <mxPoint x="1180" y="220" as="targetPoint" />
          </mxGeometry>
        </mxCell>
        <mxCell id="bhsF4yGB952L7Mf8yBAD-71" value="Abnahmeprotokoll" style="rounded=0;whiteSpace=wrap;html=1;" vertex="1" parent="1">
          <mxGeometry x="1121" y="260" width="120" height="60" as="geometry" />
        </mxCell>
        <mxCell id="bhsF4yGB952L7Mf8yBAD-72" value="" style="endArrow=none;html=1;rounded=0;" edge="1" parent="1">
          <mxGeometry width="50" height="50" relative="1" as="geometry">
            <mxPoint x="1180" y="360" as="sourcePoint" />
            <mxPoint x="1180" y="320" as="targetPoint" />
          </mxGeometry>
        </mxCell>
        <mxCell id="bhsF4yGB952L7Mf8yBAD-73" value="Erstellung des Kaufpreises" style="rounded=0;whiteSpace=wrap;html=1;" vertex="1" parent="1">
          <mxGeometry x="1121" y="360" width="120" height="60" as="geometry" />
        </mxCell>
        <mxCell id="bhsF4yGB952L7Mf8yBAD-74" value="" style="endArrow=none;html=1;rounded=0;" edge="1" parent="1">
          <mxGeometry width="50" height="50" relative="1" as="geometry">
            <mxPoint x="1000" y="460" as="sourcePoint" />
            <mxPoint x="1000" y="420" as="targetPoint" />
          </mxGeometry>
        </mxCell>
        <mxCell id="bhsF4yGB952L7Mf8yBAD-75" value="Fehlerbehebung falls vorhanden" style="rounded=0;whiteSpace=wrap;html=1;" vertex="1" parent="1">
          <mxGeometry x="940" y="460" width="120" height="60" as="geometry" />
        </mxCell>
      </root>
    </mxGraphModel>
  </diagram>
</mxfile>
